<svg width="116" height="47" viewBox="0 0 116 47" fill="none" xmlns="http://www.w3.org/2000/svg">
<g filter="url(#filter0_ddd_488_266)">
<g clip-path="url(#clip0_488_266)">
<rect y="4" width="106.059" height="43" rx="11.0405" fill="white" fill-opacity="0.1" shape-rendering="crispEdges"/>
<mask id="path-2-inside-1_488_266" fill="white">
<path d="M0 15.0405C0 8.94302 4.94302 4 11.0405 4H95.0184C101.116 4 106.059 8.94302 106.059 15.0405V35.9595C106.059 42.057 101.116 47 95.0184 47H11.0405C4.94303 47 0 42.057 0 35.9595V15.0405Z"/>
</mask>
<path d="M11.0405 4.58108H95.0184V3.41892H11.0405V4.58108ZM105.478 15.0405V35.9595H106.64V15.0405H105.478ZM95.0184 46.4189H11.0405V47.5811H95.0184V46.4189ZM0.581081 35.9595V15.0405H-0.581081V35.9595H0.581081ZM11.0405 46.4189C5.26395 46.4189 0.581081 41.7361 0.581081 35.9595H-0.581081C-0.581081 42.3779 4.62211 47.5811 11.0405 47.5811V46.4189ZM105.478 35.9595C105.478 41.7361 100.795 46.4189 95.0184 46.4189V47.5811C101.437 47.5811 106.64 42.3779 106.64 35.9595H105.478ZM95.0184 4.58108C100.795 4.58108 105.478 9.26394 105.478 15.0405H106.64C106.64 8.6221 101.437 3.41892 95.0184 3.41892V4.58108ZM11.0405 3.41892C4.6221 3.41892 -0.581081 8.6221 -0.581081 15.0405H0.581081C0.581081 9.26394 5.26394 4.58108 11.0405 4.58108V3.41892Z" fill="white" fill-opacity="0.2" mask="url(#path-2-inside-1_488_266)"/>
<rect x="0.581055" y="4.58008" width="104.897" height="41.8378" rx="10.4595" fill="white" fill-opacity="0.01"/>
<g clip-path="url(#clip1_488_266)">
<rect x="2.25919" y="6.32422" width="101.541" height="38.3513" rx="9.2973" fill="url(#paint0_linear_488_266)"/>
<path d="M26.8922 24.1325H25.7983C25.7336 23.8178 25.6204 23.5414 25.4587 23.3033C25.2999 23.0651 25.1058 22.8651 24.8765 22.7034C24.6501 22.5387 24.3987 22.4152 24.1223 22.3329C23.8458 22.2506 23.5577 22.2094 23.2577 22.2094C22.7108 22.2094 22.2153 22.3476 21.7713 22.624C21.3303 22.9004 20.9789 23.3077 20.7172 23.8458C20.4584 24.3839 20.329 25.044 20.329 25.8262C20.329 26.6084 20.4584 27.2685 20.7172 27.8066C20.9789 28.3447 21.3303 28.752 21.7713 29.0284C22.2153 29.3048 22.7108 29.443 23.2577 29.443C23.5577 29.443 23.8458 29.4018 24.1223 29.3195C24.3987 29.2372 24.6501 29.1151 24.8765 28.9534C25.1058 28.7887 25.2999 28.5873 25.4587 28.3491C25.6204 28.108 25.7336 27.8316 25.7983 27.5199H26.8922C26.8099 27.9816 26.6599 28.3947 26.4423 28.7593C26.2247 29.1239 25.9542 29.4342 25.6307 29.69C25.3073 29.9429 24.9441 30.1355 24.5413 30.2678C24.1414 30.4001 23.7135 30.4663 23.2577 30.4663C22.4873 30.4663 21.8022 30.2781 21.2024 29.9017C20.6025 29.5253 20.1305 28.9902 19.7865 28.2962C19.4425 27.6022 19.2705 26.7789 19.2705 25.8262C19.2705 24.8735 19.4425 24.0501 19.7865 23.3562C20.1305 22.6622 20.6025 22.1271 21.2024 21.7507C21.8022 21.3743 22.4873 21.1861 23.2577 21.1861C23.7135 21.1861 24.1414 21.2523 24.5413 21.3846C24.9441 21.5169 25.3073 21.711 25.6307 21.9668C25.9542 22.2197 26.2247 22.5284 26.4423 22.8931C26.6599 23.2547 26.8099 23.6679 26.8922 24.1325ZM31.2709 30.4839C30.6593 30.4839 30.1227 30.3384 29.661 30.0473C29.2023 29.7561 28.8436 29.3489 28.5848 28.8255C28.329 28.3021 28.2011 27.6905 28.2011 26.9906C28.2011 26.2849 28.329 25.6689 28.5848 25.1425C28.8436 24.6162 29.2023 24.2075 29.661 23.9163C30.1227 23.6252 30.6593 23.4797 31.2709 23.4797C31.8826 23.4797 32.4177 23.6252 32.8764 23.9163C33.3381 24.2075 33.6968 24.6162 33.9527 25.1425C34.2114 25.6689 34.3408 26.2849 34.3408 26.9906C34.3408 27.6905 34.2114 28.3021 33.9527 28.8255C33.6968 29.3489 33.3381 29.7561 32.8764 30.0473C32.4177 30.3384 31.8826 30.4839 31.2709 30.4839ZM31.2709 29.5488C31.7355 29.5488 32.1178 29.4298 32.4177 29.1916C32.7177 28.9534 32.9397 28.6402 33.0837 28.2521C33.2278 27.8639 33.2999 27.4435 33.2999 26.9906C33.2999 26.5378 33.2278 26.1158 33.0837 25.7247C32.9397 25.3337 32.7177 25.0176 32.4177 24.7764C32.1178 24.5353 31.7355 24.4148 31.2709 24.4148C30.8063 24.4148 30.4241 24.5353 30.1241 24.7764C29.8242 25.0176 29.6022 25.3337 29.4581 25.7247C29.314 26.1158 29.242 26.5378 29.242 26.9906C29.242 27.4435 29.314 27.8639 29.4581 28.2521C29.6022 28.6402 29.8242 28.9534 30.1241 29.1916C30.4241 29.4298 30.8063 29.5488 31.2709 29.5488ZM36.9707 26.2673V30.3428H35.9298V23.5679H36.9354V24.6265H37.0236C37.1824 24.2824 37.4235 24.006 37.747 23.7973C38.0704 23.5855 38.488 23.4797 38.9996 23.4797C39.4584 23.4797 39.8597 23.5738 40.2038 23.762C40.5478 23.9472 40.8154 24.2295 41.0065 24.6088C41.1976 24.9852 41.2932 25.4616 41.2932 26.0379V30.3428H40.2523V26.1085C40.2523 25.5762 40.1141 25.1616 39.8377 24.8646C39.5613 24.5647 39.1819 24.4148 38.6997 24.4148C38.3674 24.4148 38.0704 24.4868 37.8087 24.6309C37.55 24.775 37.3456 24.9852 37.1956 25.2616C37.0457 25.538 36.9707 25.8732 36.9707 26.2673ZM46.1417 23.5679V24.45H42.6308V23.5679H46.1417ZM43.6541 21.9447H44.695V28.4021C44.695 28.6961 44.7376 28.9166 44.8229 29.0637C44.9111 29.2077 45.0229 29.3048 45.1581 29.3548C45.2963 29.4018 45.4419 29.4253 45.5948 29.4253C45.7095 29.4253 45.8035 29.4195 45.8771 29.4077C45.9506 29.393 46.0094 29.3812 46.0535 29.3724L46.2652 30.3075C46.1946 30.334 46.0961 30.3604 45.9697 30.3869C45.8432 30.4163 45.683 30.431 45.4889 30.431C45.1949 30.431 44.9067 30.3678 44.6244 30.2413C44.3451 30.1149 44.1128 29.9223 43.9275 29.6635C43.7452 29.4048 43.6541 29.0784 43.6541 28.6843V21.9447ZM49.7012 30.5016C49.2719 30.5016 48.8822 30.4207 48.5323 30.259C48.1824 30.0943 47.9045 29.8576 47.6987 29.5488C47.4929 29.2372 47.3899 28.8608 47.3899 28.4197C47.3899 28.0316 47.4664 27.7169 47.6193 27.4758C47.7722 27.2317 47.9766 27.0406 48.2324 26.9024C48.4882 26.7642 48.7705 26.6613 49.0793 26.5937C49.3909 26.5231 49.7041 26.4672 50.0187 26.426C50.4304 26.3731 50.7641 26.3334 51.02 26.307C51.2787 26.2776 51.4669 26.229 51.5845 26.1614C51.7051 26.0938 51.7654 25.9762 51.7654 25.8085V25.7733C51.7654 25.3381 51.6463 24.9999 51.4081 24.7588C51.1729 24.5177 50.8156 24.3971 50.3363 24.3971C49.8394 24.3971 49.4498 24.5059 49.1675 24.7235C48.8852 24.9411 48.6867 25.1734 48.572 25.4204L47.584 25.0675C47.7604 24.6559 47.9957 24.3354 48.2897 24.106C48.5867 23.8737 48.9102 23.712 49.2601 23.6208C49.6129 23.5267 49.9599 23.4797 50.301 23.4797C50.5186 23.4797 50.7686 23.5061 51.0508 23.5591C51.3361 23.6091 51.611 23.7134 51.8757 23.8722C52.1432 24.031 52.3652 24.2707 52.5417 24.5912C52.7181 24.9117 52.8063 25.341 52.8063 25.8791V30.3428H51.7654V29.4253H51.7125C51.6419 29.5724 51.5243 29.7297 51.3596 29.8973C51.1949 30.0649 50.9759 30.2075 50.7024 30.3251C50.4289 30.4427 50.0952 30.5016 49.7012 30.5016ZM49.8599 29.5665C50.2716 29.5665 50.6186 29.4856 50.9009 29.3239C51.1861 29.1622 51.4008 28.9534 51.5448 28.6976C51.6919 28.4417 51.7654 28.1727 51.7654 27.8904V26.9377C51.7213 26.9906 51.6242 27.0391 51.4743 27.0832C51.3273 27.1244 51.1567 27.1612 50.9626 27.1935C50.7715 27.2229 50.5848 27.2494 50.4025 27.2729C50.2231 27.2935 50.0775 27.3111 49.9658 27.3258C49.6953 27.3611 49.4424 27.4185 49.2072 27.4979C48.9749 27.5743 48.7867 27.6905 48.6426 27.8463C48.5014 27.9992 48.4309 28.208 48.4309 28.4726C48.4309 28.8343 48.5647 29.1078 48.8322 29.293C49.1028 29.4753 49.4453 29.5665 49.8599 29.5665ZM57.4585 30.4839C56.8234 30.4839 56.2765 30.334 55.8177 30.034C55.359 29.7341 55.0062 29.321 54.7592 28.7946C54.5122 28.2683 54.3887 27.6669 54.3887 26.9906C54.3887 26.3025 54.5151 25.6953 54.768 25.169C55.0238 24.6397 55.3796 24.2266 55.8354 23.9296C56.2941 23.6296 56.8293 23.4797 57.4409 23.4797C57.9172 23.4797 58.3466 23.5679 58.7288 23.7443C59.1111 23.9208 59.4242 24.1678 59.6683 24.4853C59.9124 24.8029 60.0638 25.1734 60.1226 25.5968H59.0817C59.0023 25.2881 58.8259 25.0146 58.5524 24.7764C58.2819 24.5353 57.9172 24.4148 57.4585 24.4148C57.0527 24.4148 56.6969 24.5206 56.3911 24.7323C56.0883 24.9411 55.8516 25.2366 55.681 25.6189C55.5134 25.9982 55.4296 26.4437 55.4296 26.9553C55.4296 27.4787 55.5119 27.9345 55.6766 28.3227C55.8442 28.7108 56.0794 29.0122 56.3823 29.2269C56.6881 29.4415 57.0469 29.5488 57.4585 29.5488C57.7291 29.5488 57.9746 29.5018 58.1951 29.4077C58.4157 29.3136 58.6024 29.1783 58.7553 29.0019C58.9082 28.8255 59.017 28.6138 59.0817 28.3668H60.1226C60.0638 28.7667 59.9182 29.1269 59.6859 29.4474C59.4566 29.765 59.1522 30.0178 58.7729 30.206C58.3965 30.3913 57.9584 30.4839 57.4585 30.4839ZM64.5907 23.5679V24.45H61.0797V23.5679H64.5907ZM62.103 21.9447H63.144V28.4021C63.144 28.6961 63.1866 28.9166 63.2719 29.0637C63.3601 29.2077 63.4718 29.3048 63.6071 29.3548C63.7453 29.4018 63.8908 29.4253 64.0437 29.4253C64.1584 29.4253 64.2525 29.4195 64.326 29.4077C64.3995 29.393 64.4584 29.3812 64.5025 29.3724L64.7142 30.3075C64.6436 30.334 64.5451 30.3604 64.4187 30.3869C64.2922 30.4163 64.132 30.431 63.9379 30.431C63.6438 30.431 63.3557 30.3678 63.0734 30.2413C62.794 30.1149 62.5617 29.9223 62.3765 29.6635C62.1942 29.4048 62.103 29.0784 62.103 28.6843V21.9447ZM69.7909 21.3096H71.0965L74.1664 28.8078H74.2722L77.3421 21.3096H78.6477V30.3428H77.6244V23.4797H77.5362L74.7133 30.3428H73.7253L70.9024 23.4797H70.8142V30.3428H69.7909V21.3096ZM83.5403 30.4839C82.8875 30.4839 82.3244 30.3398 81.851 30.0517C81.3805 29.7606 81.0173 29.3548 80.7615 28.8343C80.5086 28.3109 80.3822 27.7022 80.3822 27.0083C80.3822 26.3143 80.5086 25.7027 80.7615 25.1734C81.0173 24.6412 81.3731 24.2266 81.8289 23.9296C82.2876 23.6296 82.8228 23.4797 83.4344 23.4797C83.7873 23.4797 84.1357 23.5385 84.4798 23.6561C84.8238 23.7737 85.1369 23.9649 85.4192 24.2295C85.7015 24.4912 85.9265 24.8382 86.0941 25.2704C86.2617 25.7027 86.3455 26.2349 86.3455 26.8671V27.3082H81.1232V26.4084H85.2869C85.2869 26.0261 85.2105 25.685 85.0576 25.3851C84.9076 25.0852 84.6929 24.8485 84.4136 24.675C84.1372 24.5015 83.8108 24.4148 83.4344 24.4148C83.0198 24.4148 82.6611 24.5177 82.3582 24.7235C82.0583 24.9264 81.8274 25.191 81.6657 25.5174C81.504 25.8438 81.4231 26.1937 81.4231 26.5672V27.167C81.4231 27.6787 81.5113 28.1124 81.6878 28.4682C81.8671 28.8211 82.1156 29.0901 82.4332 29.2754C82.7507 29.4577 83.1198 29.5488 83.5403 29.5488C83.8137 29.5488 84.0607 29.5106 84.2813 29.4342C84.5047 29.3548 84.6973 29.2372 84.8591 29.0813C85.0208 28.9225 85.1458 28.7255 85.234 28.4903L86.2396 28.7726C86.1338 29.1137 85.9559 29.4136 85.7059 29.6723C85.456 29.9282 85.1472 30.1281 84.7797 30.2722C84.4121 30.4133 83.999 30.4839 83.5403 30.4839Z" fill="#0C0C0D"/>
<mask id="path-7-inside-2_488_266" fill="white">
<path d="M2.25919 15.6215C2.25919 10.4868 6.42173 6.32422 11.5565 6.32422H94.5024C99.6372 6.32422 103.8 10.4868 103.8 15.6215V35.3783C103.8 40.513 99.6372 44.6756 94.5024 44.6756H11.5565C6.42173 44.6756 2.25919 40.513 2.25919 35.3783V15.6215Z"/>
</mask>
<path d="M11.5565 6.9053H94.5024V5.74314H11.5565V6.9053ZM103.219 15.6215V35.3783H104.381V15.6215H103.219ZM94.5024 44.0945H11.5565V45.2566H94.5024V44.0945ZM2.84027 35.3783V15.6215H1.6781V35.3783H2.84027ZM11.5565 44.0945C6.74265 44.0945 2.84027 40.1921 2.84027 35.3783H1.6781C1.6781 40.834 6.1008 45.2566 11.5565 45.2566V44.0945ZM103.219 35.3783C103.219 40.1921 99.3163 44.0945 94.5024 44.0945V45.2566C99.9581 45.2566 104.381 40.8339 104.381 35.3783H103.219ZM94.5024 6.9053C99.3163 6.9053 103.219 10.8077 103.219 15.6215H104.381C104.381 10.1658 99.9581 5.74314 94.5024 5.74314V6.9053ZM11.5565 5.74314C6.1008 5.74314 1.6781 10.1658 1.6781 15.6215H2.84027C2.84027 10.8077 6.74265 6.9053 11.5565 6.9053V5.74314Z" fill="white" fill-opacity="0.5" mask="url(#path-7-inside-2_488_266)"/>
</g>
<g opacity="0.3">
<rect x="2.32471" y="6.32422" width="101.41" height="38.3513" rx="9.2973" fill="url(#paint1_radial_488_266)"/>
</g>
</g>
</g>
<defs>
<filter id="filter0_ddd_488_266" x="-9.00676" y="0.804054" width="124.072" height="61.0135" filterUnits="userSpaceOnUse" color-interpolation-filters="sRGB">
<feFlood flood-opacity="0" result="BackgroundImageFix"/>
<feColorMatrix in="SourceAlpha" type="matrix" values="0 0 0 0 0 0 0 0 0 0 0 0 0 0 0 0 0 0 127 0" result="hardAlpha"/>
<feMorphology radius="1.4527" operator="erode" in="SourceAlpha" result="effect1_dropShadow_488_266"/>
<feOffset dy="5.81081"/>
<feGaussianBlur stdDeviation="5.22973"/>
<feComposite in2="hardAlpha" operator="out"/>
<feColorMatrix type="matrix" values="0 0 0 0 0 0 0 0 0 0 0 0 0 0 0 0 0 0 0.05 0"/>
<feBlend mode="normal" in2="BackgroundImageFix" result="effect1_dropShadow_488_266"/>
<feColorMatrix in="SourceAlpha" type="matrix" values="0 0 0 0 0 0 0 0 0 0 0 0 0 0 0 0 0 0 127 0" result="hardAlpha"/>
<feMorphology radius="0.96847" operator="erode" in="SourceAlpha" result="effect2_dropShadow_488_266"/>
<feOffset dy="1.32982"/>
<feGaussianBlur stdDeviation="1.19684"/>
<feComposite in2="hardAlpha" operator="out"/>
<feColorMatrix type="matrix" values="0 0 0 0 0 0 0 0 0 0 0 0 0 0 0 0 0 0 0.05 0"/>
<feBlend mode="normal" in2="effect1_dropShadow_488_266" result="effect2_dropShadow_488_266"/>
<feColorMatrix in="SourceAlpha" type="matrix" values="0 0 0 0 0 0 0 0 0 0 0 0 0 0 0 0 0 0 127 0" result="hardAlpha"/>
<feMorphology radius="0.484234" operator="erode" in="SourceAlpha" result="effect3_dropShadow_488_266"/>
<feOffset dy="0.349919"/>
<feGaussianBlur stdDeviation="0.314929"/>
<feComposite in2="hardAlpha" operator="out"/>
<feColorMatrix type="matrix" values="0 0 0 0 0 0 0 0 0 0 0 0 0 0 0 0 0 0 0.05 0"/>
<feBlend mode="normal" in2="effect2_dropShadow_488_266" result="effect3_dropShadow_488_266"/>
<feBlend mode="normal" in="SourceGraphic" in2="effect3_dropShadow_488_266" result="shape"/>
</filter>
<linearGradient id="paint0_linear_488_266" x1="53.0295" y1="6.32422" x2="53.0295" y2="44.6756" gradientUnits="userSpaceOnUse">
<stop stop-color="white"/>
<stop offset="1" stop-color="white" stop-opacity="0.8"/>
</linearGradient>
<radialGradient id="paint1_radial_488_266" cx="0" cy="0" r="1" gradientUnits="userSpaceOnUse" gradientTransform="translate(53.0298 44.6756) scale(88.2269 38.3513)">
<stop stop-color="#0099FF"/>
<stop offset="1" stop-color="white" stop-opacity="0"/>
</radialGradient>
<clipPath id="clip0_488_266">
<rect y="4" width="106.059" height="43" rx="11.0405" fill="white"/>
</clipPath>
<clipPath id="clip1_488_266">
<rect x="2.25919" y="6.32422" width="101.541" height="38.3513" rx="9.2973" fill="white"/>
</clipPath>
</defs>
</svg>
