<svg width="137" height="23" viewBox="0 0 137 23" fill="none" xmlns="http://www.w3.org/2000/svg">
<path d="M10.6172 16.4609C9.85938 16.7891 9.08594 17.0234 8.29688 17.1641C7.51562 17.3125 6.77344 17.3867 6.07031 17.3867C5.375 17.3867 4.74609 17.3477 4.18359 17.2695C3.62891 17.1992 3.07422 17.0742 2.51953 16.8945C1.97266 16.707 1.5 16.4688 1.10156 16.1797C0.210938 15.5469 -0.234375 14.6523 -0.234375 13.4961C-0.234375 12.8086 -0.0742188 12.168 0.246094 11.5742C0.566406 10.9727 0.984375 10.4766 1.5 10.0859C2.59375 9.24219 3.78906 8.82031 5.08594 8.82031C6.64062 8.82031 7.79688 9.27734 8.55469 10.1914C8.92969 10.6523 9.11719 11.2109 9.11719 11.8672C9.11719 12.5234 8.80469 13.0938 8.17969 13.5781C7.5625 14.0547 6.91016 14.293 6.22266 14.293C6.05859 14.293 5.97656 14.2109 5.97656 14.0469C5.97656 13.875 6.05469 13.7539 6.21094 13.6836C6.36719 13.6055 6.55469 13.5352 6.77344 13.4727C6.99219 13.4023 7.21094 13.3203 7.42969 13.2266C7.96875 12.9844 8.23828 12.5938 8.23828 12.0547C8.23828 11.5078 7.98828 11.0977 7.48828 10.8242C6.99609 10.543 6.13672 10.4023 4.91016 10.4023C3.68359 10.4023 2.73438 10.7148 2.0625 11.3398C1.39062 11.957 1.05469 12.6953 1.05469 13.5547C1.05469 14.6875 1.55859 15.4922 2.56641 15.9688C3.46484 16.3984 4.53906 16.6133 5.78906 16.6133C7.9375 16.6133 9.67578 16 11.0039 14.7734C11.9414 13.9141 12.4102 12.832 12.4102 11.5273C12.4102 10.7461 12.1328 9.98828 11.5781 9.25391C11.3359 8.92578 11.0664 8.60156 10.7695 8.28125C10.4727 7.96094 10.1758 7.64062 9.87891 7.32031C9.58203 7 9.3125 6.67969 9.07031 6.35938C8.51562 5.65625 8.23828 5 8.23828 4.39062C8.23828 3.78125 8.33594 3.25781 8.53125 2.82031C8.73438 2.375 9 1.99219 9.32812 1.67188C9.66406 1.34375 10.0469 1.0625 10.4766 0.828125C11.3438 0.34375 12.2617 0.101562 13.2305 0.101562C14.0742 0.101562 14.8594 0.304687 15.5859 0.710938C16.3828 1.14844 16.7812 1.81641 16.7812 2.71484C16.7812 3.06641 16.6562 3.375 16.4062 3.64062C16.1562 3.90625 15.875 4.03906 15.5625 4.03906C15.25 4.03906 14.9922 3.94922 14.7891 3.76953C14.5938 3.58984 14.4961 3.39062 14.4961 3.17188C14.4961 2.94531 14.5898 2.70703 14.7773 2.45703C14.9727 2.19922 15.0703 1.98828 15.0703 1.82422C15.0703 1.65234 15 1.49609 14.8594 1.35547C14.7188 1.21484 14.5391 1.10938 14.3203 1.03906C13.8828 0.90625 13.4844 0.839844 13.125 0.839844C12.2969 0.839844 11.5859 1.08594 10.9922 1.57812C10.3984 2.07031 10.1016 2.75391 10.1016 3.62891C10.1016 4.10547 10.3984 4.66406 10.9922 5.30469C11.2578 5.58594 11.5469 5.88672 11.8594 6.20703C12.1797 6.51953 12.5 6.85547 12.8203 7.21484C13.1406 7.57422 13.4336 7.94531 13.6992 8.32812C14.293 9.17188 14.5898 10.0469 14.5898 10.9531C14.5898 11.8594 14.4102 12.6797 14.0508 13.4141C13.6914 14.1484 13.2188 14.7578 12.6328 15.2422C12.0547 15.7188 11.3828 16.125 10.6172 16.4609ZM15.6898 12.9453L14.9281 12.4883C15.3188 11.8086 15.8031 11.2109 16.3813 10.6953C16.9672 10.1797 17.4906 9.92188 17.9516 9.92188C18.7016 9.92188 19.0766 10.2578 19.0766 10.9297C19.0766 11.2109 18.8813 11.8945 18.4906 12.9805C18.1078 14.0664 17.9164 14.7539 17.9164 15.043C17.9164 15.332 17.9359 15.5195 17.975 15.6055C18.0141 15.6836 18.1 15.7227 18.2328 15.7227C18.9438 15.7227 19.6742 15.457 20.4242 14.9258C21.182 14.3867 21.6742 13.793 21.9008 13.1445L22.7211 10.7539C22.807 10.5117 22.9398 10.3203 23.1195 10.1797C23.2992 10.0391 23.4711 9.96875 23.6352 9.96875C23.807 9.96875 23.9438 10.0234 24.0453 10.1328C24.1547 10.2422 24.2094 10.3867 24.2094 10.5664C24.2094 10.7461 24.1742 10.9336 24.1039 11.1289L23.2133 13.7305C22.7211 15.2617 21.9594 16.7695 20.9281 18.2539C21.8266 18.3477 22.6273 18.5078 23.3305 18.7344L23.2367 19.3906C22.1586 19.1719 21.2055 19.043 20.3773 19.0039C19.6195 19.9805 18.8422 20.7578 18.0453 21.3359C17.2563 21.9219 16.5648 22.2148 15.9711 22.2148C15.3852 22.2148 14.9477 22.0938 14.6586 21.8516C14.3617 21.6172 14.2133 21.293 14.2133 20.8789C14.2133 20.4648 14.3695 20.0859 14.682 19.7422C14.9945 19.4062 15.4125 19.1328 15.9359 18.9219C16.9984 18.4844 18.2172 18.2344 19.5922 18.1719C19.7016 18.0469 19.9633 17.6094 20.3773 16.8594C20.7914 16.1016 21.0141 15.625 21.0453 15.4297C19.6625 16.6016 18.4438 17.1875 17.3891 17.1875C16.9594 17.1875 16.6469 17.043 16.4516 16.7539C16.2563 16.457 16.1586 16.0938 16.1586 15.6641C16.1586 15.2344 16.3188 14.5 16.6391 13.4609C16.9672 12.4141 17.1313 11.8203 17.1313 11.6797C17.1313 11.5312 17.0961 11.457 17.0258 11.457C16.9633 11.457 16.893 11.4766 16.8148 11.5156C16.7367 11.5469 16.6586 11.6016 16.5805 11.6797C16.5102 11.75 16.4438 11.8203 16.3813 11.8906C16.3188 11.9531 16.2484 12.043 16.1703 12.1602C16.1 12.2773 16.0453 12.3672 16.0063 12.4297C15.8422 12.6875 15.7367 12.8594 15.6898 12.9453ZM19.0766 19.0039C18.4438 19.043 17.7992 19.1562 17.143 19.3438C15.8773 19.7031 15.2445 20.125 15.2445 20.6094C15.2445 20.8984 15.4242 21.043 15.7836 21.043C16.143 21.043 16.7289 20.7812 17.5414 20.2578C18.3539 19.7422 18.8656 19.3242 19.0766 19.0039ZM31.5789 17H29.8445L30.0672 16.2266C30.1453 15.9219 30.2859 15.4766 30.4891 14.8906C30.9422 13.6172 31.1688 12.625 31.1688 11.9141C31.1688 11.6094 31.0398 11.457 30.782 11.457C30.4617 11.457 30.0828 11.6484 29.6453 12.0312C29.2156 12.4062 28.8016 12.8672 28.4031 13.4141C27.7391 14.3281 27.0828 15.3359 26.4344 16.4375L26.1063 17H24.4539C24.4539 17 24.575 16.6328 24.8172 15.8984C25.4969 13.8672 25.8367 12.6641 25.8367 12.2891C25.8367 11.9062 25.7742 11.7148 25.6492 11.7148C25.4227 11.7148 25.1531 11.9844 24.8406 12.5234C24.7703 12.6484 24.7117 12.75 24.6648 12.8281C24.618 12.8984 24.5633 12.9883 24.5008 13.0977C24.4461 13.1992 24.4109 13.2617 24.3953 13.2852L23.6102 12.8281C24.2195 11.8359 24.7781 11.1055 25.2859 10.6367C25.7938 10.1602 26.3133 9.92188 26.8445 9.92188C27.0867 9.92188 27.2938 10.0234 27.4656 10.2266C27.6453 10.4297 27.7352 10.6719 27.7352 10.9531C27.7352 11.2266 27.7195 11.4727 27.6883 11.6914C27.657 11.9023 27.6219 12.0977 27.5828 12.2773C27.5438 12.457 27.4891 12.6719 27.4188 12.9219C27.3484 13.1719 27.2898 13.3633 27.243 13.4961C27.2039 13.6289 27.1492 13.8086 27.0789 14.0352C27.0086 14.2617 26.9656 14.3945 26.95 14.4336C27.1063 14.1602 27.3602 13.75 27.7117 13.2031C28.0633 12.6562 28.2938 12.3125 28.4031 12.1719C28.5203 12.0234 28.6727 11.8359 28.8602 11.6094C29.0477 11.375 29.2117 11.1914 29.3523 11.0586C29.5008 10.9258 29.6766 10.7773 29.8797 10.6133C30.0828 10.4492 30.2742 10.3242 30.4539 10.2383C30.8914 10.0273 31.3328 9.92188 31.7781 9.92188C32.2313 9.92188 32.575 10.0508 32.8094 10.3086C33.0438 10.5586 33.1609 10.8555 33.1609 11.1992C33.1609 11.5352 33.1063 11.8867 32.9969 12.2539C32.8953 12.6211 32.7508 13.0508 32.5633 13.543C32.3758 14.0273 32.2547 14.3555 32.2 14.5273C32.95 13.3086 33.5242 12.4492 33.9227 11.9492C35.0086 10.5977 36.0828 9.92188 37.1453 9.92188C37.6688 9.92188 38.0438 10.0469 38.2703 10.2969C38.4969 10.5469 38.6102 10.8867 38.6102 11.3164C38.6102 11.7461 38.4266 12.4609 38.0594 13.4609C37.6922 14.4531 37.5086 15.0625 37.5086 15.2891C37.5086 15.5156 37.5789 15.6289 37.7195 15.6289C38.032 15.6289 38.5281 15.1328 39.2078 14.1406L39.7117 14.6094C39.2508 15.4297 38.743 16.0664 38.1883 16.5195C37.6336 16.9648 37.157 17.1875 36.7586 17.1875C36.368 17.1875 36.0945 17.0586 35.9383 16.8008C35.782 16.543 35.7039 16.2383 35.7039 15.8867C35.7039 15.5273 35.8602 14.8984 36.1727 14C36.4852 13.0938 36.6414 12.3984 36.6414 11.9141C36.6414 11.6094 36.5047 11.457 36.2313 11.457C35.45 11.457 34.3211 12.6016 32.8445 14.8906C32.243 15.8203 31.8211 16.5234 31.5789 17ZM48.007 14.75C47.6555 15.4531 47.1555 16.0352 46.507 16.4961C45.8664 16.957 45.1281 17.1875 44.2922 17.1875C43.4562 17.1875 42.7883 16.8672 42.2883 16.2266C41.9211 17.6719 41.6086 18.7031 41.3508 19.3203C40.5383 21.2344 39.425 22.1953 38.0109 22.2031C37.6672 22.2031 37.3781 22.0859 37.1437 21.8516C36.9094 21.6172 36.7922 21.3438 36.7922 21.0312C36.7922 20.7266 36.8703 20.4844 37.0266 20.3047C37.1828 20.1328 37.3898 20.0469 37.6477 20.0469C37.9055 20.0469 38.1203 20.1055 38.2922 20.2227C38.4641 20.3477 38.55 20.5352 38.55 20.7852C38.55 21.043 38.4133 21.3164 38.1398 21.6055L38.2102 21.6992C38.6945 21.6992 39.1359 20.9922 39.5344 19.5781C39.6906 19.0078 39.8039 18.5625 39.8742 18.2422C39.9445 17.9219 39.9875 17.7305 40.0031 17.668L41.2336 12.8281C40.8508 13.0781 40.3625 13.5625 39.7687 14.2812L39.3117 13.7539C39.6555 13.2773 40.0617 12.8125 40.5305 12.3594C40.9992 11.9062 41.2961 11.6172 41.4211 11.4922C42.0305 9.6875 42.6203 8.33594 43.1906 7.4375C43.7844 6.53125 44.4406 5.81641 45.1594 5.29297L45.4758 5.57422C44.9836 6.16016 44.5656 6.90625 44.2219 7.8125C43.8781 8.71875 43.6555 9.58984 43.5539 10.4258C44.3898 10.0898 45.1828 9.92188 45.9328 9.92188C46.6906 9.92188 47.3156 10.1602 47.8078 10.6367C48.3 11.1133 48.5461 11.7422 48.5461 12.5234C48.5461 13.3047 48.3664 14.0469 48.007 14.75ZM43.4367 11.4805L42.5461 15.418C42.6867 15.7227 42.9211 15.9531 43.2492 16.1094C43.5773 16.2656 43.9562 16.3438 44.3859 16.3438C44.8156 16.3438 45.2102 16.1602 45.5695 15.793C46.2414 15.1055 46.5773 14.2109 46.5773 13.1094C46.5773 12.125 46.3117 11.4609 45.7805 11.1172C45.5695 10.9766 45.2883 10.9062 44.9367 10.9062C44.593 10.9062 44.093 11.0977 43.4367 11.4805ZM54.1461 15.9219C54.1461 15.5156 54.3102 14.8633 54.6383 13.9648C54.9664 13.0664 55.1305 12.4258 55.1305 12.043C55.1305 11.6523 54.9938 11.457 54.7203 11.457C54.4547 11.457 54.1305 11.6484 53.7477 12.0312C53.3648 12.4062 52.9977 12.8672 52.6461 13.4141C52.068 14.2969 51.4859 15.3047 50.9 16.4375L50.5953 17H48.9078C49.2906 14.1719 49.6578 12.0781 50.0094 10.7188C50.3609 9.35938 50.6969 8.19922 51.0172 7.23828C51.3375 6.27734 51.6813 5.42578 52.0484 4.68359C52.8766 2.98047 53.8297 1.71875 54.9078 0.898438L55.7984 1.30859C54.9625 2.14453 54.193 3.61719 53.4898 5.72656C52.7945 7.82812 52.0211 10.7305 51.1695 14.4336C51.2164 14.3555 51.3102 14.1914 51.4508 13.9414C51.5992 13.6836 51.7125 13.4922 51.7906 13.3672C51.8688 13.2344 51.9859 13.0391 52.1422 12.7812C52.3063 12.5234 52.443 12.3203 52.5523 12.1719C52.6617 12.0156 52.8023 11.8242 52.9742 11.5977C53.1539 11.3711 53.3102 11.1914 53.443 11.0586C53.5836 10.918 53.7477 10.7695 53.9352 10.6133C54.1227 10.4492 54.3023 10.3203 54.4742 10.2266C54.8727 10.0234 55.2984 9.92188 55.7516 9.92188C56.2047 9.92188 56.5445 10.0469 56.7711 10.2969C57.0055 10.5469 57.1227 10.8828 57.1227 11.3047C57.1227 11.7266 56.9273 12.4375 56.5367 13.4375C56.1461 14.4297 55.9508 15.043 55.9508 15.2773C55.9508 15.5117 56.0133 15.6289 56.1383 15.6289C56.4664 15.6289 56.9625 15.1328 57.6266 14.1406L58.1305 14.6094C57.6305 15.4688 57.107 16.1133 56.5602 16.543C56.0211 16.9727 55.5758 17.1875 55.2242 17.1875C54.8805 17.1875 54.6148 17.0781 54.4273 16.8594C54.2398 16.6406 54.1461 16.3281 54.1461 15.9219ZM58.3398 14.2109C58.3398 13.625 58.4805 13.0625 58.7617 12.5234C59.0508 11.9766 59.4219 11.5156 59.875 11.1406C60.875 10.3281 61.8945 9.92188 62.9336 9.92188C63.9727 9.92188 64.8242 10.1992 65.4883 10.7539C66.1523 11.3086 66.4844 12.0039 66.4844 12.8398C66.4844 13.668 66.2539 14.4141 65.793 15.0781C65.3398 15.7422 64.7383 16.2617 63.9883 16.6367C63.2383 17.0039 62.418 17.1875 61.5273 17.1875C60.6445 17.1875 59.8906 16.9102 59.2656 16.3555C58.6484 15.793 58.3398 15.0781 58.3398 14.2109ZM62.1719 16.4609C62.5312 16.4609 62.8672 16.3438 63.1797 16.1094C63.5 15.875 63.7422 15.5703 63.9062 15.1953C64.2266 14.4766 64.3867 13.7344 64.3867 12.9688C64.3867 12.2031 64.2461 11.625 63.9648 11.2344C63.6836 10.8359 63.2852 10.6367 62.7695 10.6367C62.2539 10.6367 61.7422 10.9727 61.2344 11.6445C60.7344 12.3164 60.4844 13.1719 60.4844 14.2109C60.4844 15.7109 61.0469 16.4609 62.1719 16.4609ZM70.2328 13.707C71.8656 11.1836 73.3305 9.92188 74.6273 9.92188C75.0648 9.92188 75.393 10.0547 75.6117 10.3203C75.8305 10.5859 75.9398 10.9219 75.9398 11.3281C75.9398 11.7344 75.7562 12.4375 75.3891 13.4375C75.0297 14.4375 74.85 15.0586 74.85 15.3008C74.85 15.5352 74.9086 15.6523 75.0258 15.6523C75.182 15.6523 75.4125 15.4922 75.7172 15.1719C76.0219 14.8438 76.2914 14.5 76.5258 14.1406L77.018 14.6094C76.5492 15.4609 76.0336 16.1055 75.4711 16.543C74.9164 16.9727 74.4633 17.1875 74.1117 17.1875C73.768 17.1875 73.4984 17.0742 73.3031 16.8477C73.1078 16.6133 73.0102 16.2969 73.0102 15.8984C73.0102 15.5 73.1664 14.8516 73.4789 13.9531C73.7992 13.0469 73.9594 12.4062 73.9594 12.0312C73.9594 11.6484 73.8305 11.457 73.5727 11.457C73.2758 11.457 72.9242 11.6484 72.518 12.0312C72.1117 12.4062 71.7172 12.8672 71.3344 13.4141C70.725 14.2891 70.1039 15.2969 69.4711 16.4375L69.1547 17H67.5023L67.8656 15.8984C68.5453 13.8672 68.8852 12.6641 68.8852 12.2891C68.8852 11.9062 68.8227 11.7148 68.6977 11.7148C68.4711 11.7148 68.2016 11.9844 67.8891 12.5234C67.8187 12.6484 67.7602 12.75 67.7133 12.8281C67.6664 12.8984 67.6117 12.9883 67.5492 13.0977C67.4945 13.1992 67.4594 13.2617 67.4437 13.2852L66.6586 12.8281C67.268 11.8359 67.8266 11.1055 68.3344 10.6367C68.8422 10.1602 69.3617 9.92188 69.893 9.92188C70.1352 9.92188 70.3422 10.0234 70.5141 10.2266C70.6937 10.4297 70.7836 10.6758 70.7836 10.9648C70.7836 11.2539 70.7602 11.5391 70.7133 11.8203C70.6664 12.0938 70.6156 12.3242 70.5609 12.5117C70.5141 12.6914 70.4477 12.9258 70.3617 13.2148C70.2836 13.5039 70.2406 13.668 70.2328 13.707ZM77.7898 12.9453L77.0281 12.4883C77.4187 11.8086 77.9031 11.2109 78.4812 10.6953C79.0672 10.1797 79.5906 9.92188 80.0516 9.92188C80.8016 9.92188 81.1766 10.2578 81.1766 10.9297C81.1766 11.2109 80.9812 11.8945 80.5906 12.9805C80.2078 14.0664 80.0164 14.7539 80.0164 15.043C80.0164 15.332 80.0359 15.5195 80.075 15.6055C80.1141 15.6836 80.2 15.7227 80.3328 15.7227C81.0437 15.7227 81.7742 15.457 82.5242 14.9258C83.282 14.3867 83.7742 13.793 84.0008 13.1445L84.8211 10.7539C84.907 10.5117 85.0398 10.3203 85.2195 10.1797C85.3992 10.0391 85.5711 9.96875 85.7352 9.96875C85.907 9.96875 86.0437 10.0234 86.1453 10.1328C86.2547 10.2422 86.3094 10.3867 86.3094 10.5664C86.3094 10.7461 86.2742 10.9336 86.2039 11.1289L85.3133 13.7305C84.8211 15.2617 84.0594 16.7695 83.0281 18.2539C83.9266 18.3477 84.7273 18.5078 85.4305 18.7344L85.3367 19.3906C84.2586 19.1719 83.3055 19.043 82.4773 19.0039C81.7195 19.9805 80.9422 20.7578 80.1453 21.3359C79.3562 21.9219 78.6648 22.2148 78.0711 22.2148C77.4852 22.2148 77.0477 22.0938 76.7586 21.8516C76.4617 21.6172 76.3133 21.293 76.3133 20.8789C76.3133 20.4648 76.4695 20.0859 76.782 19.7422C77.0945 19.4062 77.5125 19.1328 78.0359 18.9219C79.0984 18.4844 80.3172 18.2344 81.6922 18.1719C81.8016 18.0469 82.0633 17.6094 82.4773 16.8594C82.8914 16.1016 83.1141 15.625 83.1453 15.4297C81.7625 16.6016 80.5437 17.1875 79.4891 17.1875C79.0594 17.1875 78.7469 17.043 78.5516 16.7539C78.3562 16.457 78.2586 16.0938 78.2586 15.6641C78.2586 15.2344 78.4187 14.5 78.7391 13.4609C79.0672 12.4141 79.2312 11.8203 79.2312 11.6797C79.2312 11.5312 79.1961 11.457 79.1258 11.457C79.0633 11.457 78.993 11.4766 78.9148 11.5156C78.8367 11.5469 78.7586 11.6016 78.6805 11.6797C78.6102 11.75 78.5437 11.8203 78.4812 11.8906C78.4187 11.9531 78.3484 12.043 78.2703 12.1602C78.2 12.2773 78.1453 12.3672 78.1062 12.4297C77.9422 12.6875 77.8367 12.8594 77.7898 12.9453ZM81.1766 19.0039C80.5437 19.043 79.8992 19.1562 79.243 19.3438C77.9773 19.7031 77.3445 20.125 77.3445 20.6094C77.3445 20.8984 77.5242 21.043 77.8836 21.043C78.243 21.043 78.8289 20.7812 79.6414 20.2578C80.4539 19.7422 80.9656 19.3242 81.1766 19.0039ZM111.058 13.6836L111.655 14.1875C111.296 15.0859 110.82 15.8242 110.226 16.4023C109.632 16.9805 109.038 17.2695 108.445 17.2695C107.851 17.2695 107.425 17.0781 107.167 16.6953C106.917 16.3125 106.792 15.8281 106.792 15.2422C106.792 14.6562 106.972 13.7148 107.331 12.418C107.698 11.1211 108.097 9.875 108.527 8.67969C109.691 5.49219 110.273 3.44531 110.273 2.53906C110.273 2.01562 110.105 1.75391 109.769 1.75391C108.433 1.75391 106.769 3.90625 104.777 8.21094C103.972 9.94531 103.339 11.4023 102.878 12.582C101.925 15.0508 101.355 16.5234 101.167 17H98.5539L99.632 14.1875C100.913 10.9297 101.855 7.90234 102.456 5.10547C102.691 4.04297 102.808 3.19141 102.808 2.55078C102.808 1.57422 102.55 1.08594 102.034 1.08594C101.519 1.08594 100.937 1.48047 100.288 2.26953C99.6398 3.05078 99.0188 4.03125 98.425 5.21094C97.8313 6.39062 97.2375 7.66797 96.6438 9.04297C96.05 10.418 95.5344 11.6953 95.0969 12.875C94.0891 15.625 93.5695 17 93.5383 17H91.2414L92.5539 13.332C93.7258 10.3086 94.4406 7.92969 94.6984 6.19531C94.8234 5.39062 94.8859 4.57031 94.8859 3.73438C94.8859 2.89844 94.6711 2.19922 94.2414 1.63672C93.8117 1.06641 93.2219 0.78125 92.4719 0.78125C91.7219 0.78125 91.0734 0.941406 90.5266 1.26172C89.9875 1.57422 89.5422 1.97266 89.1906 2.45703C88.8391 2.94141 88.5422 3.48438 88.3 4.08594C87.8391 5.20312 87.6086 6.29297 87.6086 7.35547C87.6086 9.62891 88.1281 11.6289 89.1672 13.3555L88.6633 13.7305C88.1008 12.832 87.6711 11.8242 87.3742 10.707C87.0852 9.58203 86.9406 8.60156 86.9406 7.76562C86.9406 6.92969 87.0031 6.19141 87.1281 5.55078C87.2531 4.90234 87.4602 4.25 87.7492 3.59375C88.0383 2.9375 88.3938 2.35547 88.8156 1.84766C89.2453 1.33203 89.7922 0.914062 90.4563 0.59375C91.1281 0.265625 91.8313 0.101562 92.5656 0.101562C93.3 0.101562 93.9172 0.242188 94.4172 0.523438C94.925 0.804688 95.3234 1.18359 95.6125 1.66016C96.1828 2.59766 96.468 3.73438 96.468 5.07031C96.468 6.40625 96.05 8.35156 95.2141 10.9062C95.5031 10.1406 95.7141 9.60547 95.8469 9.30078C95.9875 8.99609 96.1516 8.62109 96.3391 8.17578C96.5344 7.73047 96.6867 7.38281 96.7961 7.13281C96.9055 6.875 97.0734 6.50391 97.3 6.01953C97.5266 5.52734 97.7219 5.125 97.8859 4.8125C98.0578 4.49219 98.2727 4.10547 98.5305 3.65234C98.7961 3.19141 99.0383 2.8125 99.257 2.51562C99.4758 2.21875 99.7258 1.90625 100.007 1.57812C100.296 1.24219 100.573 0.976563 100.839 0.78125C101.441 0.328125 102.023 0.101562 102.585 0.101562C103.913 0.101562 104.577 0.992188 104.577 2.77344C104.577 3.89844 104.355 5.29297 103.909 6.95703C103.761 7.51172 103.554 8.23047 103.288 9.11328C103.03 9.98828 102.886 10.4883 102.855 10.6133C103.198 9.98047 103.648 8.99219 104.202 7.64844C104.757 6.30469 105.245 5.24609 105.667 4.47266C106.089 3.69922 106.511 3.03906 106.933 2.49219C107.355 1.94531 107.859 1.48828 108.445 1.12109C109.038 0.753906 109.624 0.570312 110.202 0.570312C110.788 0.570312 111.249 0.757812 111.585 1.13281C111.929 1.50781 112.101 2.00781 112.101 2.63281C112.101 3.25781 111.991 4.01953 111.773 4.91797C111.554 5.80859 111.284 6.69531 110.964 7.57812C110.644 8.46094 110.323 9.33984 110.003 10.2148C109.214 12.332 108.792 13.9766 108.738 15.1484C108.738 15.6484 108.866 15.8984 109.124 15.8984C109.39 15.8984 109.702 15.6719 110.062 15.2188C110.421 14.7656 110.753 14.2539 111.058 13.6836ZM121.158 10.1797C120.111 12.9688 119.588 14.6602 119.588 15.2539C119.588 15.5039 119.65 15.6289 119.775 15.6289C120.119 15.6289 120.619 15.1289 121.275 14.1289L121.779 14.6094C121.365 15.3516 120.873 15.9688 120.302 16.4609C119.74 16.9453 119.283 17.1875 118.931 17.1875C118.205 17.1875 117.841 16.8203 117.841 16.0859C117.841 15.5156 117.974 14.8203 118.24 14C118.505 13.1797 118.638 12.7656 118.638 12.7578C118.599 12.8281 118.505 12.9922 118.357 13.25C118.209 13.5 118.099 13.6875 118.029 13.8125C117.959 13.9375 117.841 14.1289 117.677 14.3867C117.521 14.6367 117.388 14.8359 117.279 14.9844C117.177 15.125 117.037 15.3086 116.857 15.5352C116.685 15.7617 116.529 15.9414 116.388 16.0742C116.255 16.207 116.095 16.3555 115.908 16.5195C115.72 16.6758 115.541 16.7969 115.369 16.8828C114.978 17.0859 114.595 17.1875 114.22 17.1875C113.291 17.1875 112.826 16.6758 112.826 15.6523C112.826 15.1836 112.994 14.457 113.33 13.4727C113.666 12.4805 113.834 11.8984 113.834 11.7266C113.834 11.5469 113.779 11.457 113.67 11.457C113.357 11.457 112.923 11.9531 112.369 12.9453L111.607 12.4883C112.677 10.7773 113.709 9.92188 114.701 9.92188C115.029 9.92188 115.291 10.0156 115.486 10.2031C115.681 10.3828 115.771 10.6641 115.755 11.0469C115.748 11.4219 115.556 12.0977 115.181 13.0742C114.814 14.043 114.63 14.7852 114.63 15.3008C114.63 15.582 114.759 15.7227 115.017 15.7227C115.314 15.7227 115.666 15.5352 116.072 15.1602C116.486 14.7773 116.884 14.3125 117.267 13.7656C117.877 12.9062 118.509 11.8984 119.166 10.7422L119.482 10.1797H121.158ZM123.09 16.918C122.582 16.7383 122.219 16.5273 122 16.2852C121.781 16.0352 121.672 15.7617 121.672 15.4648C121.672 15.168 121.754 14.9219 121.918 14.7266C122.082 14.5312 122.297 14.4336 122.562 14.4336C122.836 14.4336 123.074 14.5156 123.277 14.6797C123.488 14.8359 123.594 15.0625 123.594 15.3594C123.594 15.6484 123.414 15.8906 123.055 16.0859C123.352 16.3438 123.805 16.4727 124.414 16.4727C125.734 16.4727 126.395 16.0977 126.395 15.3477C126.395 14.8789 125.977 14.5039 125.141 14.2227C124.797 14.1055 124.449 13.9805 124.098 13.8477C123.754 13.7148 123.453 13.5195 123.195 13.2617C122.938 13.0039 122.797 12.6914 122.773 12.3242C122.773 11.793 122.949 11.3438 123.301 10.9766C123.965 10.2734 124.957 9.92188 126.277 9.92188C126.926 9.92188 127.5 10.0469 128 10.2969C128.5 10.5391 128.75 10.8555 128.75 11.2461C128.75 11.6367 128.648 11.918 128.445 12.0898C128.25 12.2617 128.02 12.3477 127.754 12.3477C127.488 12.3477 127.262 12.2773 127.074 12.1367C126.895 11.9883 126.805 11.7852 126.805 11.5273C126.805 11.2695 126.957 11.0469 127.262 10.8594C127.074 10.7266 126.75 10.6602 126.289 10.6602C125.828 10.6602 125.414 10.7305 125.047 10.8711C124.68 11.0039 124.496 11.1875 124.496 11.4219C124.496 11.6562 124.629 11.8516 124.895 12.0078C125.168 12.1641 125.496 12.3086 125.879 12.4414C126.262 12.5742 126.645 12.7266 127.027 12.8984C127.41 13.0703 127.734 13.3164 128 13.6367C128.273 13.957 128.41 14.3516 128.41 14.8203C128.41 15.2891 128.219 15.7148 127.836 16.0977C127.109 16.8242 126.117 17.1875 124.859 17.1875C124.195 17.1875 123.605 17.0977 123.09 16.918ZM131.467 14.6914C131.514 15.5898 132.12 16.0391 133.284 16.0391C133.713 16.0391 134.159 15.918 134.62 15.6758C135.088 15.4258 135.467 15.1328 135.756 14.7969L136.26 15.125C135.612 16.2109 134.577 16.875 133.155 17.1172C132.842 17.1641 132.541 17.1875 132.252 17.1875C131.409 17.1875 130.705 16.9102 130.143 16.3555C129.58 15.793 129.299 15.1094 129.299 14.3047C129.299 13.5 129.545 12.7578 130.038 12.0781C130.53 11.3906 131.143 10.8594 131.877 10.4844C132.62 10.1094 133.35 9.92188 134.069 9.92188C134.788 9.92188 135.409 10.0859 135.932 10.4141C136.463 10.7422 136.733 11.1836 136.741 11.7383C136.756 12.293 136.596 12.7734 136.26 13.1797C135.924 13.5781 135.498 13.8828 134.983 14.0938C133.959 14.5078 132.955 14.7148 131.971 14.7148L131.467 14.6914ZM131.397 14.0469C132.264 14.0156 132.959 13.8789 133.483 13.6367C134.014 13.3867 134.381 13.1055 134.584 12.793C134.795 12.4727 134.901 12.1406 134.901 11.7969C134.901 11.4453 134.811 11.1875 134.631 11.0234C134.452 10.8516 134.26 10.7656 134.057 10.7656C133.557 10.7656 133.096 10.9414 132.674 11.293C132.26 11.6367 131.944 12.0586 131.725 12.5586C131.506 13.0508 131.397 13.5469 131.397 14.0469Z" fill="white"/>
</svg>
